Coordinates
version=1
nRows=19
nColumns=36
inDegrees=yes

Units are S.I. units (second, meters, Newtons, ...)
If the header above contains a line with 'inDegrees', this indicates whether rotational values are in degrees (yes) or radians (no).

endheader
time	pelvis_tilt	pelvis_list	pelvis_rotation	pelvis_tx	pelvis_ty	pelvis_tz	hip_flexion_r	hip_adduction_r	hip_rotation_r	knee_angle_r	knee_angle_r_beta	ankle_angle_r	subtalar_angle_r	mtp_angle_r	hip_flexion_l	hip_adduction_l	hip_rotation_l	knee_angle_l	knee_angle_l_beta	ankle_angle_l	subtalar_angle_l	mtp_angle_l	lumbar_extension	lumbar_bending	lumbar_rotation	arm_flex_r	arm_add_r	arm_rot_r	elbow_flex_r	pro_sup_r	arm_flex_l	arm_add_l	arm_rot_l	elbow_flex_l	pro_sup_l
      0.00000000	     -8.52175344	     -1.26608644	      7.15503283	      0.30792862	      1.23803147	     -0.19385349	      9.41196737	     -1.36686028	      8.20745609	      0.59496190	      0.01038404	      0.15516223	    -20.24194126	     -6.59586743	      5.35888603	     -0.83094432	      0.97631948	      1.88417026	      0.03288497	      6.16416127	     -8.37351746	     -6.59586743	     -1.39152336	     -0.39644165	     -0.69439926	      6.21016134	     -9.22204358	      0.17895376	     21.26286118	     95.06299479	      6.86560750	    -10.11582172	      1.65837896	     17.99093536	     96.76944727
      0.01666670	     -8.94177920	     -0.49798020	      6.70956219	      0.30383172	      1.23368727	     -0.19310216	      9.49524826	     -2.27896059	      8.17150217	      0.33831232	      0.00590466	      1.82313249	    -18.44358343	     -6.65147572	      5.34166832	      0.15106630	     -1.06876884	      1.19034221	      0.02077539	      4.62692409	     -7.73344240	     -6.65147572	     -1.75490991	     -1.37359967	     -0.28787250	      7.03604467	     -9.14982372	      2.36437603	     20.40599400	     94.54911710	      7.33457114	    -10.25173690	      2.42009413	     18.15707232	     96.10577034
      0.03333330	     -7.14685784	     -0.32317035	      7.15865886	      0.30044869	      1.23716389	     -0.19320886	      7.67970962	     -2.38756199	      7.86367708	      0.31058182	      0.00542068	      1.84945323	    -18.01353748	     -6.83316371	      3.66270893	      0.18005277	     -1.89638716	      0.96744348	      0.01688507	      3.95559347	     -8.49762936	     -6.83316371	     -5.22999860	     -1.40086753	     -0.63933530	      8.01128898	     -9.42451665	      4.18796295	     21.04917450	     95.92748288	      8.87142443	    -10.42267530	      3.64370127	     18.37681108	     97.88748937
      0.05000000	     -5.66643010	     -0.11871348	      7.27752370	      0.29812118	      1.24199357	     -0.19303243	      6.24215448	     -2.56422971	      7.36619823	      0.32096149	      0.00560183	      1.80393841	    -17.44941320	     -7.17675799	      2.53553609	      0.31628226	     -2.80654163	      1.01126408	      0.01764989	      3.75376359	     -8.95110777	     -7.17675799	     -8.05408547	     -1.35403402	     -0.84549172	      8.78047929	     -9.31751598	      2.63456455	     21.83022229	     98.84654735	      9.78136265	    -10.23077995	      1.77338283	     18.89766297	    101.42037606
      0.06666670	     -4.75436670	      0.00641744	      7.33840344	      0.29667114	      1.24363357	     -0.19319596	      5.42881106	     -2.64270249	      7.41971634	      0.35892404	      0.00626441	      2.12103115	    -17.22262330	     -7.26076640	      1.66967722	      0.43816534	     -2.83721839	      1.12719489	      0.01967326	      3.19247247	     -9.71497883	     -7.26076640	     -9.75920349	     -1.31848584	     -0.98982964	      9.37600736	     -9.53881272	      4.32521586	     22.11339360	     97.21008354	     10.46162242	    -10.38103916	      3.44048920	     18.81365270	     99.97078435
      0.08333330	     -4.43269395	      0.10929069	      7.05588881	      0.29464297	      1.24145277	     -0.19293945	      5.18996578	     -2.72346654	      7.86850618	      0.37587573	      0.00656027	      2.01066167	    -17.29251046	     -7.33139976	      1.44011230	      0.55804724	     -2.70841925	      1.37065305	      0.02392241	      2.97299078	    -10.41667554	     -7.33139976	    -10.29302002	     -1.46186221	     -0.90929788	      9.70831783	     -9.61448209	      5.65316735	     22.26591472	     94.64150217	     10.69422822	    -10.57748545	      4.82003259	     18.69580233	     97.57660789
      0.10000000	     -4.16378341	      0.15965474	      6.86000246	      0.29515019	      1.24491070	     -0.19260627	      4.92215856	     -2.73933502	      8.02587588	      0.38445248	      0.00670996	      2.14187813	    -16.91857048	     -7.41821780	      1.20139017	      0.59433616	     -2.49149619	      1.53976357	      0.02687394	      3.19217390	    -10.50660820	     -7.41821780	    -10.81108128	     -1.53674060	     -0.96498289	      9.70826638	     -9.48448935	      4.53182208	     22.80420401	     98.71980759	     10.84102059	    -10.66984030	      3.90812730	     19.21387132	    102.71073009
      0.11666670	     -4.18509105	      0.13818305	      6.84239334	      0.29547575	      1.24768287	     -0.19221190	      4.85998617	     -2.68543994	      8.15617804	      0.37826964	      0.00660205	      2.10170121	    -16.88572655	     -7.43218538	      1.25584860	      0.56679537	     -2.33377131	      1.52541945	      0.02662359	      3.07867958	    -10.89332315	     -7.43218538	    -10.84252758	     -1.61066981	     -1.12468628	      9.61302760	     -9.48630610	      5.55216938	     22.97548154	     97.46616774	     10.64520675	    -10.88901360	      5.00823143	     19.36080271	    101.47130164
      0.13333330	     -4.24707479	      0.18897907	      6.79822112	      0.29479925	      1.24091323	     -0.19227422	      4.88022390	     -2.69279940	      8.39749523	      0.37961666	      0.00662556	      2.05447162	    -17.00343681	     -7.44349962	      1.18654769	      0.68787808	     -2.22335987	      1.46600074	      0.02558654	      3.16364019	    -10.92658880	     -7.44349962	    -10.76507723	     -1.75570107	     -1.36153570	      9.53819906	     -9.40126150	      6.37803725	     23.06282113	     95.55001138	     10.64686876	    -11.16283337	      6.10721226	     19.40989269	    100.00246869
      0.15000000	     -4.15523014	      0.20208447	      6.76950901	      0.29446563	      1.24424952	     -0.19223264	      4.72641397	     -2.62333291	      8.55858850	      0.36954965	      0.00644986	      2.06980820	    -17.02979731	     -7.45390386	      1.12399468	      0.70718423	     -2.05971415	      1.59286568	      0.02780075	      3.27779108	    -11.26484577	     -7.45390386	    -10.94380313	     -1.87202528	     -1.45891044	      9.46266593	     -9.54560730	      7.62448876	     23.77166273	     95.59115827	     10.65075287	    -11.57698026	      7.82589740	     19.80660177	    100.67447198
      0.16666670	     -4.02272082	      0.20322493	      6.75414481	      0.29470690	      1.24430599	     -0.19238162	      4.49886459	     -2.53398397	      8.58005331	      0.36217621	      0.00632117	      2.17531489	    -16.97209025	     -7.46137096	      1.00472225	      0.71305790	     -2.05425955	      1.65965630	      0.02896647	      3.55160688	    -11.27871799	     -7.46137096	    -11.18243846	     -1.92154827	     -1.58444223	      9.40689039	     -9.47335845	      7.66449410	     24.22576866	     92.90015880	     10.52883240	    -11.69349632	      8.01565442	     20.24773455	     98.21695895
      0.18333330	     -3.84201062	      0.19421950	      6.75786298	      0.29432271	      1.24437211	     -0.19228287	      4.21671511	     -2.44979209	      8.29411336	      0.36466369	      0.00636458	      2.56133163	    -16.29898825	     -7.46713530	      0.76584326	      0.70715958	     -2.02516624	      1.62141331	      0.02829900	      3.60188240	    -11.32578352	     -7.46713530	    -11.50621309	     -1.92071271	     -1.84581709	      9.47926670	     -9.38738283	      7.94880355	     24.64684498	     91.23100145	     10.38425019	    -11.86052356	      8.44366043	     20.61167893	     96.43400192
      0.20000000	     -3.90697906	      0.20203242	      6.66227491	      0.29478257	      1.24409006	     -0.19232948	      4.23228429	     -2.40406167	      8.62383671	      0.37359219	      0.00652041	      2.32865783	    -16.88718005	     -7.47923944	      0.82615130	      0.74291329	     -2.03167321	      1.67206487	      0.02918304	      3.77603927	    -11.31069033	     -7.47923944	    -11.43854840	     -2.00911210	     -1.73658222	      9.28898819	     -9.33521166	      6.72660156	     25.17527625	     97.77858654	     10.44584681	    -11.98523720	      8.03792086	     20.70402885	    104.26459874
      0.21666670	     -3.83807759	      0.19636539	      6.59115217	      0.29490298	      1.24065768	     -0.19220283	      4.04003408	     -2.34567017	      8.68268236	      0.36910593	      0.00644211	      2.41499863	    -16.97518878	     -7.48745724	      0.64011073	      0.77427659	     -2.11060938	      1.69718248	      0.02962142	      3.77087815	    -11.47747737	     -7.48745724	    -11.52238653	     -2.03022289	     -1.80750508	      9.30385767	     -9.36327440	      6.93867018	     25.43867226	     97.80768227	     10.34669704	    -12.08875860	      8.14449975	     21.00784900	    104.29822410
      0.23333330	     -3.81847547	      0.19622546	      6.48484544	      0.29493314	      1.24398925	     -0.19228312	      3.98258658	     -2.28225404	      8.67139689	      0.36674031	      0.00640083	      2.45727684	    -17.01142888	     -7.48748380	      0.61606903	      0.78905338	     -2.05259798	      1.73463893	      0.03027516	      3.90896491	    -11.51911381	     -7.48748380	    -11.53356088	     -2.08144439	     -1.78508485	      9.33980399	     -9.32193714	      6.94927194	     25.48819431	     97.81215257	     10.30471528	    -12.09876742	      8.15654666	     21.01727403	    104.30344639
      0.25000000	     -3.54707114	      0.16877359	      6.37560199	      0.29573427	      1.24388102	     -0.19184996	      3.58712168	     -2.17217838	      8.83096824	      0.37703420	      0.00658049	      2.48438518	    -17.19236400	     -7.48974992	      0.30645323	      0.72992727	     -1.97984276	      1.85309512	      0.03234261	      4.12517129	    -11.54604822	     -7.48974992	    -11.87702746	     -2.04285077	     -1.87957959	      9.44532177	     -9.40034590	      7.74280072	     25.71524759	     96.43508419	     10.23343330	    -12.28979725	      9.03805860	     21.23287682	    103.17651135
      0.26666670	     -3.45874140	      0.20819694	      6.32402744	      0.29499988	      1.24078865	     -0.19209530	      3.37828369	     -2.15096218	      9.03316044	      0.38364455	      0.00669586	      2.46024985	    -17.48932002	     -7.49327206	      0.21097177	      0.77999621	     -1.92053747	      1.92948549	      0.03367587	      4.13401054	    -11.79037336	     -7.49327206	    -11.96272557	     -2.09789249	     -2.00498492	      9.57565932	     -9.49522851	      9.06632527	     25.72228744	     92.66994147	     10.26460869	    -12.47348377	     10.49655155	     21.07646874	     99.56209540
      0.28333330	     -3.09026971	      0.22707679	      6.26540817	      0.29562547	      1.24430146	     -0.19176781	      2.87876903	     -2.09881816	      9.00522614	      0.38792422	      0.00677055	      2.72118686	    -17.20958402	     -7.49390827	     -0.28173006	      0.78698404	     -1.95774508	      1.91064345	      0.03334702	      4.36224439	    -11.56341891	     -7.49390827	    -12.52274878	     -2.06064956	     -2.05470191	      9.59077038	     -9.53309393	      9.03700294	     26.20593858	     91.97854981	     10.15742458	    -12.57797832	     10.64421941	     21.66380963	     98.71105344
      0.30000000	     -3.02529663	      0.23441526	      6.24000985	      0.29582448	      1.24408068	     -0.19187171	      2.76476057	     -2.05895651	      8.97186784	      0.39550479	      0.00690286	      2.85135873	    -17.11130427	     -7.49699486	     -0.40155413	      0.82435927	     -1.87603360	      2.00502047	      0.03499421	      4.34008058	    -11.65571784	     -7.49699486	    -12.62607681	     -2.07641166	     -2.01596843	      9.43394551	     -9.38193781	      7.14538700	     26.53442818	     98.28224363	     10.10998866	    -12.53708319	      9.39387869	     21.84744548	    104.83479996
